G04*
G04 #@! TF.GenerationSoftware,Altium Limited,Altium Designer,26.2.0 (7)*
G04*
G04 Layer_Physical_Order=2*
G04 Layer_Color=16711680*
%FSLAX44Y44*%
%MOMM*%
G71*
G04*
G04 #@! TF.SameCoordinates,0004C0F7-ADB4-48BF-967D-552DD00EC813*
G04*
G04*
G04 #@! TF.FilePolarity,Positive*
G04*
G01*
G75*
%ADD14C,0.2540*%
%ADD44C,1.6000*%
%ADD45R,1.6000X1.6000*%
%ADD46C,1.5240*%
%ADD53O,4.5000X4.5000*%
%ADD54O,1.6500X1.6500*%
%ADD55O,1.7000X1.2000*%
%ADD56O,1.4000X1.0000*%
%ADD57C,1.2700*%
G36*
X672110Y15232D02*
X670860Y13210D01*
Y13210D01*
X670860Y13210D01*
X668941Y11710D01*
X6610D01*
X5610Y12710D01*
Y508960D01*
X43688D01*
Y491998D01*
X94475D01*
Y515460D01*
X672110D01*
Y15232D01*
D02*
G37*
%LPC*%
G36*
X139446Y479345D02*
X134537Y478862D01*
X129817Y477430D01*
X125467Y475105D01*
X121654Y471976D01*
X118525Y468163D01*
X116200Y463813D01*
X114768Y459093D01*
X114285Y454184D01*
X114768Y449275D01*
X116200Y444555D01*
X118525Y440205D01*
X121654Y436392D01*
X125467Y433263D01*
X129817Y430938D01*
X134537Y429506D01*
X139446Y429023D01*
X144355Y429506D01*
X149075Y430938D01*
X153425Y433263D01*
X157238Y436392D01*
X160367Y440205D01*
X162692Y444555D01*
X164124Y449275D01*
X164607Y454184D01*
X164124Y459093D01*
X162692Y463813D01*
X160367Y468163D01*
X157238Y471976D01*
X153425Y475105D01*
X149075Y477430D01*
X144355Y478862D01*
X139446Y479345D01*
D02*
G37*
G36*
X301030Y425850D02*
X298690D01*
X296429Y425244D01*
X294401Y424074D01*
X292746Y422419D01*
X291576Y420391D01*
X290970Y418130D01*
Y415790D01*
X291576Y413529D01*
X292746Y411501D01*
X294401Y409846D01*
X296429Y408676D01*
X298690Y408070D01*
X301030D01*
X303291Y408676D01*
X305319Y409846D01*
X306974Y411501D01*
X308144Y413529D01*
X308750Y415790D01*
Y418130D01*
X308144Y420391D01*
X306974Y422419D01*
X305319Y424074D01*
X303291Y425244D01*
X301030Y425850D01*
D02*
G37*
G36*
X215646Y426967D02*
X215646D01*
X212829Y426596D01*
X210204Y425509D01*
X207950Y423779D01*
X206221Y421525D01*
X205134Y418901D01*
X204763Y416084D01*
X205134Y413267D01*
X206221Y410643D01*
X207950Y408388D01*
X210204Y406659D01*
X212829Y405572D01*
X215646Y405201D01*
X215646D01*
X218463Y405572D01*
X221088Y406659D01*
X223342Y408388D01*
X225071Y410643D01*
X226158Y413267D01*
X226529Y416084D01*
X226158Y418901D01*
X225071Y421525D01*
X223342Y423779D01*
X221088Y425509D01*
X218463Y426596D01*
X215646Y426967D01*
D02*
G37*
G36*
X357780Y420100D02*
X355440D01*
X353179Y419494D01*
X351151Y418324D01*
X349496Y416669D01*
X348326Y414641D01*
X347720Y412380D01*
Y410040D01*
X348326Y407779D01*
X349496Y405751D01*
X351151Y404096D01*
X353179Y402926D01*
X355440Y402320D01*
X357780D01*
X360041Y402926D01*
X362069Y404096D01*
X363724Y405751D01*
X364894Y407779D01*
X365500Y410040D01*
Y412380D01*
X364894Y414641D01*
X363724Y416669D01*
X362069Y418324D01*
X360041Y419494D01*
X357780Y420100D01*
D02*
G37*
G36*
X527780Y407600D02*
X525440D01*
X523179Y406994D01*
X521151Y405824D01*
X519496Y404169D01*
X518326Y402141D01*
X517720Y399880D01*
Y399659D01*
X515180Y399325D01*
X514894Y400391D01*
X513724Y402419D01*
X512069Y404074D01*
X510041Y405244D01*
X507780Y405850D01*
X505440D01*
X503179Y405244D01*
X501151Y404074D01*
X499496Y402419D01*
X498326Y400391D01*
X497720Y398130D01*
Y395790D01*
X498326Y393529D01*
X499496Y391501D01*
X501151Y389846D01*
X500632Y387221D01*
X499462Y385193D01*
X498856Y382932D01*
Y380592D01*
X499462Y378331D01*
X500632Y376303D01*
X502287Y374648D01*
X504315Y373478D01*
X506576Y372872D01*
X508916D01*
X511177Y373478D01*
X513205Y374648D01*
X514860Y376303D01*
X516030Y378331D01*
X516318Y379405D01*
X519044Y379763D01*
X519428Y379097D01*
X521083Y377442D01*
X523111Y376272D01*
X525372Y375666D01*
X527712D01*
X529973Y376272D01*
X532001Y377442D01*
X533656Y379097D01*
X534092Y379854D01*
X537025D01*
X537462Y379097D01*
X539117Y377442D01*
X541145Y376272D01*
X543406Y375666D01*
X545746D01*
X548007Y376272D01*
X550035Y377442D01*
X551690Y379097D01*
X552860Y381125D01*
X553466Y383386D01*
Y385726D01*
X552860Y387987D01*
X551690Y390015D01*
X550036Y391668D01*
X551436Y393067D01*
X552606Y395095D01*
X553212Y397356D01*
Y399696D01*
X552606Y401957D01*
X551436Y403985D01*
X549781Y405640D01*
X547753Y406810D01*
X545492Y407416D01*
X543152D01*
X540891Y406810D01*
X538863Y405640D01*
X537208Y403985D01*
X536986Y403599D01*
X534053D01*
X533724Y404169D01*
X532069Y405824D01*
X530041Y406994D01*
X527780Y407600D01*
D02*
G37*
G36*
X275698Y410370D02*
X273022D01*
X270438Y409678D01*
X268122Y408340D01*
X266230Y406448D01*
X264892Y404132D01*
X264200Y401548D01*
Y398872D01*
X264892Y396288D01*
X266230Y393972D01*
X268122Y392080D01*
X270438Y390742D01*
X273022Y390050D01*
X275698D01*
X278282Y390742D01*
X280598Y392080D01*
X282490Y393972D01*
X283828Y396288D01*
X284520Y398872D01*
Y401548D01*
X283828Y404132D01*
X282490Y406448D01*
X280598Y408340D01*
X278282Y409678D01*
X275698Y410370D01*
D02*
G37*
G36*
Y384970D02*
X273022D01*
X270438Y384278D01*
X268122Y382940D01*
X266230Y381048D01*
X264892Y378732D01*
X264200Y376148D01*
Y373472D01*
X264892Y370888D01*
X266230Y368572D01*
X268122Y366680D01*
X270438Y365342D01*
X273022Y364650D01*
X275698D01*
X278282Y365342D01*
X280598Y366680D01*
X282490Y368572D01*
X283828Y370888D01*
X284520Y373472D01*
Y376148D01*
X283828Y378732D01*
X282490Y381048D01*
X280598Y382940D01*
X278282Y384278D01*
X275698Y384970D01*
D02*
G37*
G36*
X215646Y376167D02*
X215646D01*
X212829Y375796D01*
X210204Y374709D01*
X207950Y372980D01*
X206221Y370726D01*
X205134Y368101D01*
X204763Y365284D01*
X205134Y362467D01*
X206221Y359842D01*
X207950Y357589D01*
X210204Y355859D01*
X212829Y354772D01*
X215646Y354401D01*
X215646D01*
X218463Y354772D01*
X221088Y355859D01*
X223342Y357589D01*
X225071Y359842D01*
X226158Y362467D01*
X226529Y365284D01*
X226158Y368101D01*
X225071Y370726D01*
X223342Y372980D01*
X221088Y374709D01*
X218463Y375796D01*
X215646Y376167D01*
D02*
G37*
G36*
X139446Y354345D02*
X134537Y353862D01*
X129817Y352430D01*
X125467Y350105D01*
X121654Y346976D01*
X118525Y343163D01*
X116200Y338813D01*
X114768Y334093D01*
X114285Y329184D01*
X114768Y324275D01*
X116200Y319555D01*
X118525Y315205D01*
X121654Y311392D01*
X125467Y308263D01*
X129817Y305938D01*
X134537Y304506D01*
X139446Y304023D01*
X144355Y304506D01*
X149075Y305938D01*
X153425Y308263D01*
X157238Y311392D01*
X160367Y315205D01*
X162692Y319555D01*
X164124Y324275D01*
X164607Y329184D01*
X164124Y334093D01*
X162692Y338813D01*
X160367Y343163D01*
X157238Y346976D01*
X153425Y350105D01*
X149075Y352430D01*
X144355Y353862D01*
X139446Y354345D01*
D02*
G37*
G36*
X236662Y267080D02*
X233886D01*
X231206Y266362D01*
X228802Y264974D01*
X226840Y263012D01*
X225452Y260608D01*
X224734Y257928D01*
Y255152D01*
X225452Y252472D01*
X226840Y250068D01*
X228802Y248106D01*
X231206Y246718D01*
X233886Y246000D01*
X236662D01*
X239342Y246718D01*
X241746Y248106D01*
X243708Y250068D01*
X245096Y252472D01*
X245814Y255152D01*
Y257928D01*
X245096Y260608D01*
X243708Y263012D01*
X241746Y264974D01*
X239342Y266362D01*
X236662Y267080D01*
D02*
G37*
G36*
X30790D02*
X9710D01*
Y246000D01*
X30790D01*
Y267080D01*
D02*
G37*
G36*
X420030Y204738D02*
X417690D01*
X415429Y204132D01*
X413401Y202962D01*
X411746Y201307D01*
X410576Y199279D01*
X409970Y197018D01*
Y194678D01*
X410576Y192417D01*
X411746Y190389D01*
X413401Y188734D01*
X415429Y187564D01*
X417690Y186958D01*
X420030D01*
X422291Y187564D01*
X424319Y188734D01*
X425974Y190389D01*
X427144Y192417D01*
X427750Y194678D01*
Y197018D01*
X427144Y199279D01*
X425974Y201307D01*
X424319Y202962D01*
X422291Y204132D01*
X420030Y204738D01*
D02*
G37*
G36*
X340780Y195592D02*
X338440D01*
X336179Y194986D01*
X334151Y193816D01*
X332496Y192161D01*
X331326Y190133D01*
X330720Y187872D01*
Y185532D01*
X331326Y183271D01*
X332496Y181243D01*
X334151Y179588D01*
X336179Y178418D01*
X338440Y177812D01*
X340780D01*
X343041Y178418D01*
X345069Y179588D01*
X346724Y181243D01*
X347894Y183271D01*
X348500Y185532D01*
Y187872D01*
X347894Y190133D01*
X346724Y192161D01*
X345069Y193816D01*
X343041Y194986D01*
X340780Y195592D01*
D02*
G37*
G36*
X137668Y207279D02*
X132759Y206796D01*
X128039Y205364D01*
X123689Y203039D01*
X119876Y199910D01*
X116747Y196097D01*
X114422Y191747D01*
X112990Y187027D01*
X112507Y182118D01*
X112990Y177209D01*
X114422Y172489D01*
X116747Y168139D01*
X119876Y164326D01*
X123689Y161197D01*
X128039Y158872D01*
X132759Y157440D01*
X137668Y156957D01*
X142577Y157440D01*
X147297Y158872D01*
X151647Y161197D01*
X155460Y164326D01*
X158589Y168139D01*
X160914Y172489D01*
X162346Y177209D01*
X162829Y182118D01*
X162346Y187027D01*
X160914Y191747D01*
X158589Y196097D01*
X155460Y199910D01*
X151647Y203039D01*
X147297Y205364D01*
X142577Y206796D01*
X137668Y207279D01*
D02*
G37*
G36*
X649610Y155574D02*
X644610D01*
X642381Y155280D01*
X640303Y154420D01*
X638519Y153051D01*
X637150Y151267D01*
X636290Y149189D01*
X635996Y146960D01*
X636290Y144731D01*
X637150Y142653D01*
X638519Y140869D01*
X640303Y139500D01*
X642381Y138640D01*
X644610Y138346D01*
X649610D01*
X651839Y138640D01*
X653917Y139500D01*
X655701Y140869D01*
X657070Y142653D01*
X657930Y144731D01*
X658224Y146960D01*
X657930Y149189D01*
X657070Y151267D01*
X655701Y153051D01*
X653917Y154420D01*
X651839Y155280D01*
X649610Y155574D01*
D02*
G37*
G36*
X618810Y151565D02*
X614810D01*
X612842Y151306D01*
X611007Y150546D01*
X609432Y149338D01*
X608224Y147762D01*
X607464Y145928D01*
X607205Y143960D01*
X607464Y141992D01*
X608224Y140157D01*
X609432Y138582D01*
X611007Y137374D01*
X612842Y136614D01*
X614810Y136355D01*
X618810D01*
X620778Y136614D01*
X622612Y137374D01*
X624188Y138582D01*
X625396Y140157D01*
X626156Y141992D01*
X626415Y143960D01*
X626156Y145928D01*
X625396Y147762D01*
X624188Y149338D01*
X622612Y150546D01*
X620778Y151306D01*
X618810Y151565D01*
D02*
G37*
G36*
X213868Y154901D02*
X213868D01*
X211051Y154530D01*
X208426Y153443D01*
X206172Y151713D01*
X204443Y149459D01*
X203356Y146835D01*
X202985Y144018D01*
X203356Y141201D01*
X204443Y138576D01*
X206172Y136322D01*
X208426Y134593D01*
X211051Y133506D01*
X213868Y133135D01*
X213868D01*
X216685Y133506D01*
X219310Y134593D01*
X221564Y136322D01*
X223293Y138576D01*
X224380Y141201D01*
X224751Y144018D01*
X224380Y146835D01*
X223293Y149459D01*
X221564Y151713D01*
X219310Y153443D01*
X216685Y154530D01*
X213868Y154901D01*
D02*
G37*
G36*
X266514Y146304D02*
X263838D01*
X261254Y145612D01*
X258938Y144274D01*
X257046Y142382D01*
X255708Y140066D01*
X255016Y137482D01*
Y134806D01*
X255708Y132222D01*
X257046Y129906D01*
X258938Y128014D01*
X261254Y126676D01*
X263838Y125984D01*
X266514D01*
X269098Y126676D01*
X271414Y128014D01*
X273306Y129906D01*
X274644Y132222D01*
X275336Y134806D01*
Y137482D01*
X274644Y140066D01*
X273306Y142382D01*
X271414Y144274D01*
X269098Y145612D01*
X266514Y146304D01*
D02*
G37*
G36*
X597440Y141600D02*
X595100D01*
X592839Y140994D01*
X590811Y139824D01*
X589156Y138169D01*
X587986Y136141D01*
X587380Y133880D01*
Y131540D01*
X587986Y129279D01*
X589156Y127251D01*
X590811Y125596D01*
X592839Y124426D01*
X595100Y123820D01*
X597440D01*
X599701Y124426D01*
X601729Y125596D01*
X603384Y127251D01*
X604554Y129279D01*
X605160Y131540D01*
Y133880D01*
X604554Y136141D01*
X603384Y138169D01*
X601729Y139824D01*
X599701Y140994D01*
X597440Y141600D01*
D02*
G37*
G36*
X266514Y120904D02*
X263838D01*
X261254Y120212D01*
X258938Y118874D01*
X257046Y116982D01*
X255708Y114666D01*
X255016Y112082D01*
Y109406D01*
X255708Y106822D01*
X257046Y104506D01*
X258938Y102614D01*
X261254Y101276D01*
X263838Y100584D01*
X266514D01*
X269098Y101276D01*
X271414Y102614D01*
X273306Y104506D01*
X274644Y106822D01*
X275336Y109406D01*
Y112082D01*
X274644Y114666D01*
X273306Y116982D01*
X271414Y118874D01*
X269098Y120212D01*
X266514Y120904D01*
D02*
G37*
G36*
X340514Y110490D02*
X338174D01*
X335913Y109884D01*
X333885Y108714D01*
X332230Y107059D01*
X331060Y105031D01*
X330454Y102770D01*
Y100430D01*
X331060Y98169D01*
X332230Y96141D01*
X333885Y94486D01*
X335913Y93316D01*
X338174Y92710D01*
X340514D01*
X342775Y93316D01*
X344803Y94486D01*
X346458Y96141D01*
X347628Y98169D01*
X348234Y100430D01*
Y102770D01*
X347628Y105031D01*
X346458Y107059D01*
X344803Y108714D01*
X342775Y109884D01*
X340514Y110490D01*
D02*
G37*
G36*
X618810Y103065D02*
X614810D01*
X612842Y102806D01*
X611007Y102046D01*
X609432Y100838D01*
X608224Y99263D01*
X607464Y97428D01*
X607205Y95460D01*
X607464Y93492D01*
X608224Y91657D01*
X609432Y90082D01*
X611007Y88874D01*
X612842Y88114D01*
X614810Y87855D01*
X618810D01*
X620778Y88114D01*
X622612Y88874D01*
X624188Y90082D01*
X625396Y91657D01*
X626156Y93492D01*
X626415Y95460D01*
X626156Y97428D01*
X625396Y99263D01*
X624188Y100838D01*
X622612Y102046D01*
X620778Y102806D01*
X618810Y103065D01*
D02*
G37*
G36*
X649610Y101074D02*
X644610D01*
X642381Y100780D01*
X640303Y99920D01*
X638519Y98551D01*
X637150Y96767D01*
X636290Y94689D01*
X635996Y92460D01*
X636290Y90231D01*
X637150Y88153D01*
X638519Y86369D01*
X640303Y85000D01*
X642381Y84140D01*
X644610Y83846D01*
X649610D01*
X651839Y84140D01*
X653917Y85000D01*
X655701Y86369D01*
X657070Y88153D01*
X657930Y90231D01*
X658224Y92460D01*
X657930Y94689D01*
X657070Y96767D01*
X655701Y98551D01*
X653917Y99920D01*
X651839Y100780D01*
X649610Y101074D01*
D02*
G37*
G36*
X213868Y104101D02*
X213868D01*
X211051Y103730D01*
X208426Y102643D01*
X206172Y100913D01*
X204443Y98659D01*
X203356Y96035D01*
X202985Y93218D01*
X203356Y90401D01*
X204443Y87776D01*
X206172Y85522D01*
X208426Y83793D01*
X211051Y82706D01*
X213868Y82335D01*
X213868D01*
X216685Y82706D01*
X219310Y83793D01*
X221564Y85522D01*
X223293Y87776D01*
X224380Y90401D01*
X224751Y93218D01*
X224380Y96035D01*
X223293Y98659D01*
X221564Y100913D01*
X219310Y102643D01*
X216685Y103730D01*
X213868Y104101D01*
D02*
G37*
G36*
X137668Y82279D02*
X132759Y81796D01*
X128039Y80364D01*
X123689Y78039D01*
X119876Y74910D01*
X116747Y71097D01*
X114422Y66747D01*
X112990Y62027D01*
X112507Y57118D01*
X112990Y52209D01*
X114422Y47489D01*
X116747Y43139D01*
X119876Y39326D01*
X123689Y36197D01*
X128039Y33872D01*
X132759Y32440D01*
X137668Y31957D01*
X142577Y32440D01*
X147297Y33872D01*
X151647Y36197D01*
X155460Y39326D01*
X158589Y43139D01*
X160914Y47489D01*
X162346Y52209D01*
X162829Y57118D01*
X162346Y62027D01*
X160914Y66747D01*
X158589Y71097D01*
X155460Y74910D01*
X151647Y78039D01*
X147297Y80364D01*
X142577Y81796D01*
X137668Y82279D01*
D02*
G37*
%LPD*%
D14*
X48768Y512313D02*
Y502156D01*
X53846Y497078D01*
X58925Y502156D01*
Y512313D01*
X74160Y497078D02*
X64003D01*
X74160Y507235D01*
Y509774D01*
X71621Y512313D01*
X66542D01*
X64003Y509774D01*
X79238D02*
X81777Y512313D01*
X86856D01*
X89395Y509774D01*
Y499617D01*
X86856Y497078D01*
X81777D01*
X79238Y499617D01*
Y509774D01*
D44*
X235274Y256540D02*
D03*
D45*
X20250D02*
D03*
D46*
X274360Y400210D02*
D03*
X265176Y136144D02*
D03*
X274360Y374810D02*
D03*
X265176Y110744D02*
D03*
D53*
X139446Y454184D02*
D03*
X137668Y182118D02*
D03*
Y57118D02*
D03*
X139446Y329184D02*
D03*
D54*
X213868Y93218D02*
D03*
Y144018D02*
D03*
X215646Y416084D02*
D03*
Y365284D02*
D03*
D55*
X647110Y146960D02*
D03*
Y92460D02*
D03*
D56*
X616810Y143960D02*
D03*
Y95460D02*
D03*
D57*
X339344Y101600D02*
D03*
X339610Y186702D02*
D03*
X418860Y195848D02*
D03*
X356610Y411210D02*
D03*
X596270Y132710D02*
D03*
X299860Y416960D02*
D03*
X526610Y398710D02*
D03*
X506610Y396960D02*
D03*
X507746Y381762D02*
D03*
X526542Y384556D02*
D03*
X544576D02*
D03*
X544322Y398526D02*
D03*
M02*
