G04*
G04 #@! TF.GenerationSoftware,Altium Limited,Altium Designer,26.2.0 (7)*
G04*
G04 Layer_Color=8421504*
%FSLAX44Y44*%
%MOMM*%
G71*
G04*
G04 #@! TF.SameCoordinates,0004C0F7-ADB4-48BF-967D-552DD00EC813*
G04*
G04*
G04 #@! TF.FilePolarity,Positive*
G04*
G01*
G75*
%ADD19R,6.3500X3.3000*%
%ADD20R,4.0600X3.3000*%
G04:AMPARAMS|DCode=21|XSize=0.76mm|YSize=0.6604mm|CornerRadius=0.0825mm|HoleSize=0mm|Usage=FLASHONLY|Rotation=0.000|XOffset=0mm|YOffset=0mm|HoleType=Round|Shape=RoundedRectangle|*
%AMROUNDEDRECTD21*
21,1,0.7600,0.4953,0,0,0.0*
21,1,0.5949,0.6604,0,0,0.0*
1,1,0.1651,0.2975,-0.2477*
1,1,0.1651,-0.2975,-0.2477*
1,1,0.1651,-0.2975,0.2477*
1,1,0.1651,0.2975,0.2477*
%
%ADD21ROUNDEDRECTD21*%
%ADD22R,0.9121X0.9581*%
%ADD23R,0.7000X1.3000*%
%ADD24R,1.7500X0.4000*%
%ADD25R,0.8121X0.7581*%
%ADD26R,0.6350X1.2700*%
%ADD27R,2.5000X1.4250*%
%ADD28R,1.7062X0.9552*%
%ADD29R,0.6000X0.8000*%
%ADD30R,2.0000X2.0000*%
%ADD31R,6.3500X3.8100*%
%ADD32R,1.4600X2.0000*%
G36*
X654550Y98950D02*
X654760Y98910D01*
X654960Y98870D01*
X655130Y98830D01*
X655300Y98780D01*
X655620Y98660D01*
X655980Y98500D01*
X656330Y98280D01*
X656630Y98070D01*
X656910Y97810D01*
X657175Y97545D01*
X657420Y97220D01*
X657600Y96910D01*
X657770Y96590D01*
X657920Y96200D01*
X658025Y95805D01*
X658090Y95390D01*
X658110Y94960D01*
Y89960D01*
X658090Y89590D01*
X658040Y89220D01*
X657980Y88910D01*
X657850Y88500D01*
X657670Y88130D01*
X657470Y87770D01*
X657220Y87440D01*
X656950Y87130D01*
X656650Y86870D01*
X656330Y86630D01*
X655980Y86420D01*
X655600Y86230D01*
X655240Y86120D01*
X655059Y86065D01*
X654880Y86020D01*
X654500Y85980D01*
X654110Y85960D01*
X633610D01*
Y80710D01*
X626610D01*
Y98960D01*
X654330D01*
X654550Y98950D01*
D02*
G37*
G36*
X633610Y153460D02*
X654110D01*
X654500Y153440D01*
X654880Y153400D01*
X655059Y153355D01*
X655240Y153300D01*
X655600Y153190D01*
X655980Y153000D01*
X656330Y152790D01*
X656650Y152550D01*
X656950Y152290D01*
X657220Y151980D01*
X657470Y151650D01*
X657670Y151290D01*
X657850Y150920D01*
X657980Y150510D01*
X658040Y150200D01*
X658090Y149830D01*
X658110Y149460D01*
Y144460D01*
X658090Y144030D01*
X658025Y143615D01*
X657920Y143220D01*
X657770Y142830D01*
X657600Y142510D01*
X657420Y142200D01*
X657175Y141875D01*
X656910Y141610D01*
X656630Y141350D01*
X656330Y141140D01*
X655980Y140920D01*
X655620Y140760D01*
X655300Y140640D01*
X655130Y140590D01*
X654960Y140550D01*
X654760Y140510D01*
X654550Y140470D01*
X654330Y140460D01*
X626610D01*
Y158710D01*
X633610D01*
Y153460D01*
D02*
G37*
D19*
X601560Y397660D02*
D03*
D20*
X510160Y336660D02*
D03*
D21*
X418860Y218960D02*
D03*
X339344Y123810D02*
D03*
Y137810D02*
D03*
X418860Y232960D02*
D03*
D22*
X356610Y425670D02*
D03*
Y440210D02*
D03*
D23*
X339610Y214460D02*
D03*
X330110Y238460D02*
D03*
Y214460D02*
D03*
X349110D02*
D03*
Y238460D02*
D03*
D24*
X618860Y132710D02*
D03*
Y119710D02*
D03*
Y113210D02*
D03*
Y106710D02*
D03*
Y126210D02*
D03*
D25*
X299860Y433420D02*
D03*
Y445960D02*
D03*
D26*
X326970Y502210D02*
D03*
X335860D02*
D03*
X344750D02*
D03*
D27*
X649610Y110085D02*
D03*
Y129335D02*
D03*
D28*
X388110Y239715D02*
D03*
Y212205D02*
D03*
D29*
X450966Y466090D02*
D03*
X465466D02*
D03*
X450458Y494538D02*
D03*
X464958D02*
D03*
D30*
X506410Y145796D02*
D03*
X466410D02*
D03*
X505648Y93980D02*
D03*
X465648D02*
D03*
D31*
X601560Y264760D02*
D03*
D32*
X616810Y148710D02*
D03*
Y90710D02*
D03*
M02*
